<?xml version="1.0" encoding="UTF-8" standalone="no"?>
<!DOCTYPE svg PUBLIC "-//W3C//DTD SVG 1.1//EN" "http://www.w3.org/Graphics/SVG/1.1/DTD/svg11.dtd">
<svg width="100%" height="100%" viewBox="0 48 288 192" version="1.1" xmlns="http://www.w3.org/2000/svg" xmlns:xlink="http://www.w3.org/1999/xlink" xml:space="preserve" xmlns:serif="http://www.serif.com/" style="fill-rule:evenodd;clip-rule:evenodd;stroke-linejoin:round;stroke-miterlimit:2;">
    <g>
        <g transform="matrix(1,0,0,1,-2.07629,-1.48472)">
            <path d="M84.976,185.68C84.339,186.353 82.851,187.415 81.753,188.018C78.175,189.93 78.175,189.86 80.867,193.862C82.107,195.775 83.347,197.688 83.559,198.113C84.091,199.14 84.02,199.99 83.488,199.069C83.24,198.644 82.78,198.361 82.461,198.396C81.965,198.503 81.434,197.865 81.434,197.157C81.399,197.05 81.257,196.802 81.08,196.59C80.903,196.342 80.442,195.315 80.088,194.287C79.486,192.622 79.309,192.445 78.317,192.41C77.715,192.375 77.219,192.445 77.219,192.516C77.219,192.587 78.246,194.004 79.486,195.704C80.725,197.405 82.461,199.884 83.311,201.266C85.862,205.233 88.235,206.508 91.565,205.729C92.344,205.516 92.698,205.375 92.309,205.339C91.742,205.304 91.742,205.233 92.486,204.631L93.336,203.958L92.486,203.037C91.99,202.541 91.423,202.116 91.14,202.116C90.892,202.116 90.679,201.939 90.679,201.762C90.679,201.549 90.431,201.407 90.148,201.407C89.546,201.407 89.51,201.018 89.475,197.121C89.439,195.598 89.546,194.571 89.687,194.819C89.829,195.031 89.971,195.74 89.971,196.377C89.971,197.05 90.112,197.475 90.325,197.334C90.502,197.227 90.644,196.413 90.608,195.527C90.538,194.287 90.679,193.756 91.211,193.366C91.777,192.906 91.813,192.87 91.317,193.048C89.546,193.685 89.404,193.685 89.971,193.296C90.396,192.977 90.431,192.87 90.006,192.587C89.617,192.339 89.652,192.091 90.183,191.276C90.538,190.71 91.104,189.93 91.459,189.541C92.061,188.797 92.025,188.761 89.475,186.601C88.023,185.396 86.712,184.404 86.535,184.404C86.358,184.404 85.649,184.971 84.976,185.68ZM84.941,201.336C85.012,201.62 84.834,201.691 84.409,201.514C83.736,201.266 83.24,200.734 83.24,200.203C83.24,199.813 84.764,200.841 84.941,201.336ZM88.908,199.247C88.908,199.424 88.589,199.636 88.2,199.742C87.81,199.849 87.491,199.778 87.491,199.636C87.491,199.459 87.775,199.247 88.129,199.176C88.448,199.069 88.766,198.999 88.837,198.963C88.873,198.963 88.908,199.069 88.908,199.247ZM88.908,197.865C88.908,198.042 88.766,198.219 88.554,198.219C88.377,198.219 88.2,198.042 88.2,197.865C88.2,197.652 88.377,197.511 88.554,197.511C88.766,197.511 88.908,197.652 88.908,197.865ZM88.731,196.094C88.837,196.271 88.766,196.448 88.589,196.448C88.377,196.448 88.2,196.271 88.2,196.094C88.2,195.881 88.27,195.74 88.341,195.74C88.448,195.74 88.625,195.881 88.731,196.094ZM87.491,194.677C87.491,194.854 87.42,195.031 87.349,195.031C87.243,195.031 87.066,194.854 86.96,194.677C86.854,194.464 86.924,194.323 87.102,194.323C87.314,194.323 87.491,194.464 87.491,194.677ZM88.731,194.677C88.837,194.854 88.696,195.031 88.412,195.031C88.093,195.031 87.845,194.854 87.845,194.677C87.845,194.464 87.987,194.323 88.164,194.323C88.377,194.323 88.625,194.464 88.731,194.677ZM105.769,167.26C105.628,167.685 105.273,167.756 104.529,167.579C103.644,167.402 103.113,167.614 101.448,168.854C97.516,171.759 95.603,173.813 97.41,173.246C97.799,173.14 98.118,173.175 98.118,173.353C98.118,173.813 97.232,174.522 96.524,174.628C96.205,174.663 95.674,175.195 95.32,175.761C94.753,176.682 94.753,176.824 95.213,177.178C95.674,177.532 95.497,177.851 94.044,179.233C93.123,180.154 91.884,181.004 91.317,181.11C90.75,181.216 90.077,181.641 89.794,182.067C89.121,182.988 89.085,185.573 89.723,185.361C89.935,185.29 90.325,185.467 90.538,185.751C90.892,186.246 91.104,186.246 92.132,185.786C92.805,185.538 93.442,185.325 93.584,185.361C93.726,185.432 93.903,185.184 94.044,184.83C94.151,184.511 95.142,183.661 96.205,182.988C97.268,182.315 98.33,181.464 98.508,181.11C98.826,180.543 98.756,180.543 97.445,181.181C96.666,181.606 95.638,181.925 95.213,181.925C94.434,181.889 94.434,181.854 95.461,181.11C97.445,179.658 101.306,175.69 101.306,175.159C101.306,174.84 102.085,173.99 103.042,173.211C103.998,172.467 105.025,171.44 105.273,170.944C105.521,170.448 105.84,169.987 105.946,169.881C106.194,169.669 106.974,167.437 106.974,167.012C106.974,166.445 105.982,166.658 105.769,167.26ZM90.679,182.421C90.679,182.527 90.538,182.704 90.325,182.81C90.148,182.917 89.971,182.846 89.971,182.669C89.971,182.456 90.148,182.279 90.325,182.279C90.538,182.279 90.679,182.35 90.679,182.421ZM99.287,179.622C98.968,180.508 99.429,180.65 99.889,179.835C100.137,179.304 100.137,179.091 99.889,179.091C99.677,179.091 99.429,179.339 99.287,179.622ZM102.652,176.186C101.944,176.895 101.2,177.887 100.952,178.383L100.491,179.268L101.306,178.56C102.404,177.603 104.246,175.195 104.069,175.017C103.998,174.911 103.36,175.443 102.652,176.186ZM108.036,174.628C108.036,174.982 109.559,177.355 109.701,177.214C109.772,177.107 109.489,176.47 109.064,175.761C108.391,174.592 108.036,174.238 108.036,174.628ZM110.587,158.758C110.374,161.096 109.949,164.497 109.63,166.339C109.028,169.952 109.17,172.75 110.02,174.805C111.224,177.71 111.933,177.391 111.933,173.849L111.933,171.652L114.271,169.35C115.581,168.075 116.856,167.047 117.104,167.047C117.388,167.047 117.848,166.41 118.167,165.63C118.592,164.603 119.017,164.143 119.69,164.001C121.957,163.505 121.922,163.541 121.674,161.982C121.568,161.167 121.284,159.609 121.072,158.511L120.718,156.527L118.734,156.279C117.636,156.137 116.573,155.889 116.325,155.677C115.829,155.252 114.802,155.004 112.641,154.756L111.012,154.579L110.587,158.758ZM108.426,172.042C108.355,173.211 108.816,174.699 109.524,175.549C109.914,176.045 110.091,176.222 109.949,175.938C109.807,175.69 109.418,174.557 109.064,173.459C108.745,172.361 108.426,171.723 108.426,172.042ZM107.328,172.68C107.328,172.857 107.505,173.14 107.682,173.246C107.895,173.353 108.036,173.317 108.036,173.105C108.036,172.928 107.895,172.644 107.682,172.538C107.505,172.432 107.328,172.467 107.328,172.68ZM107.115,170.023C107.151,170.306 107.292,170.66 107.399,170.802C107.54,170.908 107.576,170.767 107.54,170.448C107.505,170.165 107.363,169.81 107.257,169.669C107.115,169.562 107.08,169.704 107.115,170.023ZM108.603,158.015C108.107,164.249 108.001,169.81 108.355,170.058C108.568,170.165 108.745,170.165 108.745,169.987C108.745,169.846 108.922,168.571 109.134,167.224C109.559,164.32 109.843,157.377 109.595,155.96C109.241,154.189 108.851,154.968 108.603,158.015ZM113.208,169.421C112.96,169.669 112.287,169.173 112.287,168.748C112.287,168.535 112.5,168.535 112.818,168.819C113.137,169.066 113.279,169.35 113.208,169.421ZM115.298,168.11C115.192,168.287 114.908,168.464 114.731,168.464C114.519,168.464 114.483,168.287 114.589,168.11C114.696,167.898 114.979,167.756 115.156,167.756C115.369,167.756 115.404,167.898 115.298,168.11ZM115.971,166.87C115.829,167.154 115.688,167.402 115.617,167.402C115.546,167.402 115.475,167.154 115.475,166.87C115.475,166.587 115.617,166.339 115.829,166.339C116.006,166.339 116.077,166.587 115.971,166.87ZM115.121,166.41C115.121,166.622 114.908,166.587 114.589,166.339C114.306,166.091 114.058,165.843 114.058,165.772C114.058,165.701 114.306,165.737 114.589,165.843C114.873,165.985 115.121,166.233 115.121,166.41ZM167.701,86.285C168.703,85.339 170.05,85.052 172.797,85.158C174.01,85.208 174.482,85.198 174.532,85.108C174.652,84.928 175.595,85.058 175.776,85.279C175.866,85.389 176.458,85.64 177.089,85.85C177.721,86.061 178.704,86.462 179.276,86.733C180.891,87.525 181.763,88.448 182.616,90.283C183.077,91.256 183.097,91.627 182.766,92.42C182.495,93.082 181.994,94.606 181.753,95.549C181.663,95.91 181.543,96.251 181.492,96.311C181.476,96.332 181.43,96.351 181.357,96.369C181.41,96.673 181.395,97.025 181.296,97.389C181.124,97.945 181.227,98.193 181.675,98.348C182.228,98.534 182.228,98.596 181.641,99.152C181.055,99.709 181.055,100.236 181.538,102.712C181.607,103.177 181.434,103.332 180.916,103.332C180.502,103.362 179.949,103.517 179.673,103.733C179.225,104.044 179.155,103.982 179.294,103.362C179.398,102.961 179.777,102.31 180.122,101.969C180.985,101.134 180.951,100.577 179.949,99.957C179.121,99.493 179.086,99.493 178.914,100.329C178.81,100.793 178.637,102.125 178.5,103.27C178.327,104.88 178.119,105.436 177.637,105.684C177.256,105.838 176.98,106.273 176.98,106.612C176.98,107.634 176.083,107.634 173.7,106.582C171.249,105.529 169.627,105.467 168.521,106.488C168.038,106.891 168.038,107.046 168.452,107.634C168.729,107.975 168.867,108.469 168.797,108.655C168.591,109.213 167.762,109.151 167.417,108.593C167.175,108.191 166.968,108.284 166.347,109.028L165.622,109.925L167.487,111.503C169.558,113.268 171.18,114.011 172.872,114.011L173.977,114.011L173.183,113.237C172.734,112.804 171.594,112.216 170.662,111.906C168.901,111.348 168.35,110.792 168.97,110.235C169.73,109.553 171.871,110.636 174.771,113.206C177.774,115.837 178.223,116.611 176.911,116.982C176.221,117.169 176.221,117.199 176.773,117.478C176.918,117.556 177.227,117.644 177.628,117.73C177.883,117.447 178.167,117.235 178.458,117.309C180.378,117.837 182.297,118.543 182.563,118.81C183.308,119.529 185.289,120.105 186.177,119.928C187.182,119.704 188.19,119.776 190.136,115.226C190.534,114.311 191.478,112.617 192.286,111.429C193.094,110.241 193.834,108.861 193.943,108.315C194.047,107.802 194.402,107.27 194.744,107.161C195.202,107.004 194.793,106.744 193.256,106.079C192.149,105.572 190.865,104.888 190.435,104.552C190.005,104.217 189.179,103.731 188.618,103.511C188.024,103.285 187.567,102.909 187.608,102.704C187.683,102.328 191.038,103.323 191.263,103.795C191.331,103.986 192.321,104.363 193.435,104.658C194.555,104.919 195.676,105.358 195.949,105.59C196.229,105.789 196.803,105.94 197.233,105.92C197.951,105.886 197.999,105.825 197.596,105.175C197.248,104.608 197.269,104.327 197.755,103.679L198.344,102.873L198.725,104.158C199.195,105.71 199.105,106.509 198.277,107.267C197.778,107.806 197.093,108.913 196.545,110.224C196.401,110.586 196.504,110.607 196.982,110.348C197.502,110.061 197.516,110.171 197.07,111.325C195.117,116.264 191.496,121.898 189.211,123.535L187.631,124.675L189.163,123.774C189.977,123.263 190.633,123.004 190.592,123.209C190.551,123.414 189.874,123.953 189.108,124.403C188.02,125.037 187.357,125.153 186.333,124.947C184.966,124.672 184.686,124.829 185.068,125.581C185.518,126.524 186.837,126.505 188.348,125.53L189.9,124.527L189.243,125.852C188.77,126.788 188.455,127.115 188.107,126.903C187.889,126.753 187.342,126.82 186.938,127.059C186.337,127.4 185.92,127.352 184.301,126.742C183.249,126.317 181.787,125.632 181.029,125.16C180.826,125.033 180.609,124.885 180.388,124.733C180.293,124.744 180.215,124.722 180.157,124.659C180.076,124.573 179.995,124.487 179.913,124.405C179.466,124.099 179.027,123.819 178.669,123.689C178.266,123.539 177.725,123.059 177.184,122.589C176.943,122.428 176.687,122.248 176.428,122.059C175.53,121.378 174.702,120.914 174.632,120.976C174.287,121.285 176.428,123.359 178.051,124.349C179.5,125.217 179.673,125.403 179.086,125.557C178.362,125.712 176.29,124.752 176.29,124.226C176.29,124.072 175.738,123.39 175.081,122.74C174.426,122.059 173.977,121.471 174.081,121.378C174.184,121.285 173.7,120.914 173.045,120.542C172.388,120.171 171.594,119.459 171.353,118.963C170.87,118.129 170.904,118.035 171.594,117.602C172.285,117.137 172.285,117.106 171.284,117.291C170.697,117.385 169.937,117.57 169.558,117.726C167.314,118.561 166.105,119.595 161.651,120.059C161.534,120.07 161.016,120.126 160.192,120.215C165.374,120.061 169.111,119.968 168.432,120.042C167.227,120.148 165.633,120.538 164.89,120.856C162.631,121.809 159.283,121.672 157.017,120.551C156.045,120.652 154.96,120.763 153.801,120.879C153.204,121.429 153.001,121.457 153.062,120.953L152.141,121.043C152.07,121.173 151.998,121.312 151.925,121.459C151.5,122.273 150.614,123.548 149.906,124.257C148.701,125.532 148.489,125.603 146.541,125.603C145.017,125.603 144.309,125.745 144.026,126.17C143.813,126.453 143.069,126.736 142.432,126.736C141.511,126.772 141.404,126.843 141.865,127.091C142.184,127.268 142.68,127.339 142.998,127.232C143.388,127.055 143.494,127.162 143.317,127.587C143.211,127.87 143.105,128.295 143.105,128.472C143.105,128.649 142.928,128.791 142.715,128.791C142.538,128.791 142.467,128.614 142.609,128.366C142.75,128.118 142.715,128.083 142.432,128.224C142.219,128.366 141.581,128.153 141.05,127.728L140.094,126.949L139.987,128.118C139.81,130.172 139.598,130.42 138.925,129.464L138.323,128.614L138.11,130.208L137.933,131.802L137.331,130.562C136.764,129.322 136.693,129.322 136.622,130.491C136.551,131.235 138.748,135.521 139.173,135.521C139.456,135.521 140.271,137.08 140.271,137.611C140.271,137.788 139.917,138.001 139.492,138.143C138.818,138.32 138.783,138.426 139.173,138.674C139.633,138.957 139.633,139.099 139.208,139.595C138.783,140.091 138.818,140.162 139.598,139.949C140.944,139.63 141.298,140.339 141.369,143.775C141.44,147.14 141.9,147.742 141.971,144.519C141.971,143.066 142.184,142.358 142.609,141.933C143.211,141.401 143.211,141.401 142.786,141.968C142.361,142.5 142.396,142.606 142.892,142.606C143.53,142.606 145.23,144.129 145.23,144.696C145.23,144.873 145.372,145.085 145.584,145.156C145.761,145.192 145.832,145.617 145.726,146.042C145.549,146.609 145.159,146.892 144.203,147.069C143.494,147.175 142.68,147.352 142.396,147.494C141.227,147.955 143.388,147.955 144.769,147.459C145.938,147.069 146.222,147.069 146.611,147.459C146.824,147.707 146.93,148.096 146.824,148.273C146.576,148.663 147.32,149.867 147.887,150.08C148.099,150.151 148.205,150.328 148.135,150.505C148.099,150.647 148.241,150.718 148.489,150.682C148.701,150.611 148.985,151.072 149.126,151.709C149.268,152.347 149.906,153.445 150.543,154.154C151.181,154.897 151.854,155.925 152.031,156.491C152.208,157.023 152.527,157.483 152.704,157.483C152.846,157.483 153.306,157.838 153.731,158.263C154.44,159.042 154.759,161.38 154.121,161.38C153.944,161.38 153.625,161.876 153.413,162.442C153.235,163.009 152.881,163.505 152.669,163.505C152.456,163.505 151.712,163.895 150.968,164.355C149.374,165.383 146.647,165.772 147.178,164.887C147.355,164.639 146.895,164.568 145.726,164.745L143.99,164.957L145.23,164.426C145.903,164.143 146.895,163.824 147.462,163.718C147.993,163.576 148.418,163.257 148.418,162.974C148.418,162.336 148.489,162.336 146.611,163.009C144.451,163.753 142.219,163.966 142.715,163.363C143.14,162.832 143.317,162.868 139.208,162.655C137.579,162.584 135.985,162.62 135.666,162.797C135.347,162.974 133.895,162.797 132.124,162.407C130.459,162.053 128.44,161.769 127.625,161.769C125.925,161.734 122.205,160.14 122.205,159.396C122.205,159.148 122.453,158.794 122.772,158.617C123.091,158.44 123.268,158.192 123.197,158.05C123.162,157.908 124.366,157.731 125.925,157.66C127.483,157.59 129.502,157.342 130.423,157.164C131.38,156.952 132.832,156.881 133.718,156.952C135.276,157.129 135.312,157.094 135.312,156.066C135.312,155.358 135.489,155.004 135.843,155.004C136.481,155.004 136.516,154.579 135.985,154.047C135.666,153.728 135.772,153.693 136.41,153.835C137.224,154.047 137.224,154.047 136.658,153.339C135.878,152.489 135.843,152.17 136.587,152.17C136.87,152.17 137.047,152.028 136.941,151.851C136.835,151.674 136.126,151.745 135.418,152.028C133.93,152.56 131.557,152.666 131.273,152.241C131.026,151.851 131.451,151.284 132.407,150.788C132.832,150.576 133.186,150.08 133.186,149.726C133.186,149.194 132.797,149.053 131.096,148.876C128.404,148.663 127.873,148.344 128.971,147.671C129.432,147.423 129.573,147.211 129.29,147.246C128.085,147.352 127.271,147.175 126.598,146.679C125.96,146.148 125.96,146.148 126.846,146.361C127.377,146.467 127.908,146.396 128.015,146.183C128.156,145.971 128.085,145.794 127.873,145.794C127.66,145.794 127.554,145.688 127.66,145.51C127.731,145.369 126.314,144.306 124.437,143.173C122.595,142.039 121.178,141.047 121.249,140.941C121.355,140.835 122.205,141.224 123.126,141.756C125.181,142.96 129.254,144.908 128.758,144.448C128.581,144.271 127.519,143.668 126.456,143.102C125.393,142.57 123.835,141.649 123.02,141.047C121.709,140.162 121.32,140.055 119.938,140.232C118.84,140.41 118.309,140.339 118.167,140.02C118.061,139.701 117.955,139.701 117.707,140.02C117.53,140.268 117.211,140.339 116.927,140.126C116.644,139.985 116.219,139.914 115.936,140.02C115.652,140.126 115.546,140.02 115.617,139.737C115.723,139.453 116.042,137.788 116.361,136.053C117.246,131.412 118.38,129.712 122.914,126.347C124.614,125.072 125.075,124.895 126.739,124.895C128.085,124.895 130.997,121.145 131.128,120.64C131.027,120.635 131.056,120.555 131.207,120.37C131.428,119.681 131.781,119.048 131.908,118.901C133.185,117.508 133.755,116.519 134.376,116.24C134.825,116.022 135.067,115.621 135.032,115.187C134.998,114.692 135.308,114.289 136.034,113.887C137.483,113.113 139.003,111.813 138.83,111.503C138.588,111.194 136.655,111.689 135.93,112.246C135.274,112.742 134.618,111.999 135.204,111.163C135.757,110.358 136.241,109.553 136.241,109.367C136.241,109.213 136.655,108.904 137.173,108.687C137.863,108.377 138.209,107.851 138.692,106.427C138.919,105.681 139.311,104.704 139.668,103.955C139.608,103.907 139.561,103.836 139.526,103.742L138.865,101.879L140.057,103.206C140.257,102.843 140.416,102.497 140.516,102.229C139.609,101.27 139.635,101.249 140.39,101.215C140.521,101.207 140.659,101.132 140.793,101.011C140.905,100.617 141.067,100.087 141.262,99.495C141.159,99.358 141.003,98.989 140.75,98.347C140.169,96.949 139.769,97.469 140.201,98.845C140.49,99.818 140.489,99.86 139.771,99.897C139.328,99.915 138.738,99.784 138.401,99.612C137.308,99.013 136.864,99.115 136.816,99.917C136.767,100.761 136.577,100.696 136.289,99.765C136.165,99.342 136.018,99.235 135.68,99.359C135.447,99.463 135.318,99.716 135.359,99.927C135.42,100.16 135.188,100.221 134.766,100.091C134.387,99.962 133.184,100.016 132.085,100.177C129.57,100.559 128.641,100.552 128.58,100.192C128.539,100.023 128.097,99.83 127.592,99.699L126.685,99.502L124.775,102.358C122.05,105.292 119.671,107.301 120.356,106.082C120.634,105.598 120.4,105.744 119.507,106.582C118.827,107.21 118.337,107.861 118.399,108.009C118.482,108.136 117.629,109.27 116.564,110.486C115.457,111.702 113.918,112.203 113.895,112.477C113.871,112.751 114.14,113.492 114.473,114.128C114.806,114.722 115.158,115.674 115.26,116.203C115.34,116.71 115.672,117.515 115.964,117.982C116.465,118.745 116.464,118.788 115.832,118.698C114.862,118.522 114.674,118.204 114.537,116.831C114.422,115.268 113.937,115.243 112.49,116.667C111.448,117.736 111.406,117.736 110.819,117.14C110.484,116.8 110.085,116.565 109.873,116.605C109.662,116.646 109.431,116.412 109.224,115.946C108.85,115.056 108.704,114.907 108.638,115.224C108.595,115.392 108.3,115.221 107.965,114.881C107.483,114.391 107.443,114.18 107.826,113.803C108.081,113.552 108.253,113.173 108.212,113.004C108.15,112.813 108.47,112.33 108.874,111.932L109.619,111.199L109.568,112.338C109.563,112.972 109.582,113.204 109.627,112.867C109.693,112.508 110.034,112.046 110.374,111.796C110.735,111.566 110.927,111.293 110.801,111.166C110.696,111.059 110.846,110.828 111.143,110.662C111.461,110.474 111.611,110.158 111.55,109.884C111.447,109.566 111.896,108.746 112.706,107.739C116.224,103.227 117.246,102.01 118.289,100.984C118.969,100.313 119.311,99.809 119.164,99.66C118.997,99.49 119.465,98.945 120.677,97.877C122.632,96.203 126.657,94.376 127.731,94.701C128.047,94.809 128.448,94.749 128.618,94.581C129.108,94.099 132.089,93.51 133.671,93.585C134.473,93.633 135.15,93.512 135.194,93.301C135.259,93.027 135.364,93.091 135.509,93.409C135.696,93.812 135.802,93.833 135.931,93.497C136.103,93.118 137.964,92.71 138.511,92.883C138.827,92.991 139.63,92.913 140.286,92.685C141.979,92.149 143.098,92.137 143.939,92.65C144.317,92.906 144.949,93.037 145.287,92.956C145.668,92.874 146.048,92.919 146.194,93.068C146.341,93.217 146.573,93.24 146.701,93.114C146.871,92.947 146.975,93.053 146.994,93.454C147.032,94.003 147.264,94.026 147.627,93.459C147.733,93.312 147.815,93.693 147.832,94.263C147.834,94.312 147.836,94.359 147.838,94.404C148.052,94.354 148.261,94.308 148.465,94.265C148.404,94.034 148.532,93.909 148.784,93.911C149.013,93.913 149.155,93.991 149.225,94.115C152.479,93.518 154.164,93.866 154.193,95.159C154.193,95.747 155.403,96.738 156.68,97.234C157.474,97.512 157.681,97.512 157.922,97.078C158.406,96.366 160.442,96.8 161.789,97.914C162.411,98.441 163.033,98.843 163.17,98.843C163.343,98.843 163.941,99.152 164.424,98.843C164.976,98.502 165.553,96.893 165.345,96.8C165.241,96.758 165.167,96.705 165.125,96.64C163.131,96.728 160.924,96.713 160.471,96.572C159.929,96.411 159.468,96.02 159.387,95.659C159.277,95.158 159.668,94.496 160.26,94.185C160.471,94.075 164.843,93.342 165.285,93.342C165.505,93.342 165.897,91.868 166.007,90.604C166.076,89.818 166.25,89.032 166.495,88.335C166.782,88.581 167.139,88.849 167.563,89.123C170.246,90.865 172.204,91.403 175.135,91.139L175.197,91.134C177.592,90.932 178.586,89.773 178.305,89.681C177.937,89.561 177.25,89.642 176.763,89.889C174.633,90.752 168.423,89.722 168.757,88.621L168.762,88.608C168.777,88.563 168.804,88.518 168.843,88.472C168.858,88.45 168.87,88.424 168.879,88.395L168.884,88.378C168.97,88.035 168.622,87.33 168.023,86.627L167.701,86.285ZM118.132,164.568C118.238,164.745 118.203,164.922 117.99,164.922C117.813,164.922 117.53,164.745 117.423,164.568C117.317,164.355 117.352,164.214 117.565,164.214C117.742,164.214 118.025,164.355 118.132,164.568ZM115.51,164.462C115.971,165.028 115.936,165.064 115.404,164.603C114.802,164.143 114.625,163.859 114.908,163.859C114.979,163.859 115.262,164.143 115.51,164.462ZM139.22,160.447C138.16,160.445 137.481,160.503 137.614,160.636C138.039,161.061 141.121,161.734 143.282,161.911C144.061,161.947 145.23,162.124 145.868,162.265C146.209,162.351 146.449,162.398 146.618,162.398L146.64,162.398C146.943,162.389 147.001,162.213 147.001,161.805C147.001,161.238 146.718,161.061 145.69,160.884C143.856,160.625 141.126,160.458 139.354,160.447L139.22,160.447ZM107.753,159.963C107.753,160.459 107.824,160.636 107.93,160.388C108.001,160.175 108.001,159.75 107.93,159.502C107.824,159.29 107.753,159.467 107.753,159.963ZM107.682,157.483C107.682,157.66 107.859,157.838 108.072,157.838C108.249,157.838 108.32,157.66 108.213,157.483C108.107,157.271 107.93,157.129 107.824,157.129C107.753,157.129 107.682,157.271 107.682,157.483ZM124.933,153.481C124.791,153.587 124.685,154.154 124.685,154.685L124.685,155.677L125.925,154.968C126.598,154.543 127.164,154.083 127.164,153.941C127.164,153.374 125.393,153.02 124.933,153.481ZM128.936,153.941C128.617,154.154 128.581,154.295 128.829,154.295C129.042,154.295 129.361,154.118 129.467,153.941C129.75,153.516 129.609,153.516 128.936,153.941ZM118.203,144.412C118.628,144.837 117.919,146.609 117.175,147.104C116.892,147.246 116.998,147.423 117.459,147.6C118.061,147.848 118.061,147.884 117.317,147.884C116.786,147.919 116.29,148.309 115.9,148.982C115.581,149.549 115.156,150.045 114.944,150.045C114.767,150.045 114.341,150.222 114.058,150.399C113.598,150.718 113.598,150.788 114.058,151.107C114.519,151.391 114.483,151.461 113.916,151.461C113.491,151.461 113.35,151.639 113.491,151.993C113.598,152.276 113.491,152.524 113.279,152.524C113.031,152.524 113.385,152.914 114.058,153.41C114.837,153.976 115.333,154.154 115.475,153.906C115.617,153.693 115.936,153.587 116.219,153.622C116.892,153.764 120.47,152.949 122.807,152.134C124.437,151.603 124.72,151.568 124.543,151.993C124.402,152.347 124.579,152.524 125.039,152.524C125.677,152.524 125.712,152.418 125.322,151.816C124.791,151.001 124.756,151.001 122.737,151.497C121.887,151.709 120.966,151.816 120.718,151.709C120.47,151.639 121.178,151.355 122.312,151.143C123.41,150.895 124.331,150.576 124.331,150.399C124.331,150.257 123.339,150.328 122.134,150.611C120.93,150.895 119.797,151.072 119.584,151.001C119.372,150.93 120.08,150.682 121.143,150.434C124.189,149.726 124.083,149.832 123.268,148.698C122.772,148.025 122.241,147.707 121.745,147.742C121.284,147.778 121.213,147.742 121.603,147.671C122.382,147.459 122.382,147.53 121.107,145.652C120.222,144.306 119.832,144.023 118.911,144.023C118.132,144.023 117.919,144.129 118.203,144.412ZM142.192,151.959C142.075,151.96 141.967,152.013 141.9,152.134C141.794,152.312 141.936,152.524 142.219,152.666C142.308,152.699 142.393,152.715 142.468,152.716L142.49,152.715C142.644,152.711 142.75,152.64 142.75,152.524C142.75,152.215 142.463,151.969 142.209,151.96L142.192,151.959ZM140.753,150.773C140.666,150.771 140.625,150.87 140.625,151.072C140.625,151.249 140.873,151.497 141.192,151.603C141.362,151.664 141.478,151.7 141.541,151.702L141.557,151.702C141.655,151.694 141.577,151.572 141.333,151.284C141.062,150.955 140.876,150.785 140.763,150.773L140.753,150.773ZM125.535,148.451C125.925,148.734 126.421,148.982 126.598,148.982C126.81,148.982 126.669,148.734 126.314,148.451C125.925,148.167 125.429,147.919 125.252,147.919C125.039,147.919 125.181,148.167 125.535,148.451ZM134.78,147.494C134.674,147.6 134.391,147.494 134.143,147.246C133.824,146.892 133.859,146.857 134.355,147.069C134.709,147.175 134.887,147.388 134.78,147.494ZM130.276,145.236C130.107,145.233 129.998,145.643 129.998,146.325C129.998,147.007 130.107,147.418 130.276,147.415L130.285,147.414C130.307,147.412 130.329,147.403 130.353,147.388C130.565,147.282 130.707,146.786 130.707,146.325C130.707,145.865 130.565,145.369 130.353,145.262C130.329,145.247 130.307,145.238 130.285,145.236L130.276,145.236ZM137.791,146.502C137.614,146.502 137.437,146.679 137.437,146.892C137.437,147.014 137.521,147.085 137.631,147.084L137.646,147.083C137.692,147.079 137.741,147.064 137.791,147.034C138.004,146.927 138.145,146.75 138.145,146.644C138.145,146.578 138.021,146.511 137.83,146.503L137.791,146.502ZM137.206,140.25C136.979,140.259 137.193,140.666 137.827,141.543C138.464,142.358 138.571,142.889 138.429,144.342C138.323,145.333 138.393,146.148 138.535,146.148L138.548,146.148C139.07,146.112 139.276,143.799 138.854,142.322C138.641,141.508 138.145,140.693 137.791,140.48C137.518,140.333 137.329,140.255 137.222,140.25L137.206,140.25ZM124.63,140.187C124.533,140.188 124.433,140.192 124.331,140.197L122.737,140.303L124.154,141.189C125.322,141.897 130.6,144.377 130.99,144.377L130.996,144.376C131.056,144.366 130.987,144.194 130.884,144.023C130.778,143.81 130.99,143.668 131.415,143.668L131.435,143.669C131.853,143.678 132.269,143.996 132.478,144.519C132.744,145.235 133.081,145.644 133.264,145.643L133.271,145.642C133.399,145.633 133.445,145.413 133.328,144.944C133.198,144.371 133.182,144.162 133.408,144.161L133.423,144.162C133.503,144.164 133.611,144.191 133.753,144.235C133.908,144.291 134.011,144.318 134.06,144.316L134.067,144.316C134.161,144.304 134.004,144.155 133.576,143.846C132.974,143.385 132.868,143.137 133.222,142.96C133.647,142.677 132.832,141.72 130.955,140.197C130.608,139.941 129.799,139.799 129.097,139.788L128.971,139.788C128.367,139.793 127.873,139.902 127.873,140.126C127.873,140.303 128.192,140.48 128.546,140.48C128.936,140.48 129.467,140.728 129.786,141.012C130.069,141.295 130.53,141.543 130.778,141.543C131.486,141.579 132.974,142.818 132.584,143.066C132.568,143.077 132.543,143.084 132.51,143.085L132.49,143.086C132.078,143.086 130.65,142.487 129.077,141.685C126.774,140.549 125.848,140.2 124.747,140.187L124.63,140.187ZM128.779,142.606C128.995,142.617 129.37,142.788 129.644,142.96C129.919,143.132 130.027,143.303 129.84,143.314L129.821,143.314C129.644,143.314 129.219,143.137 128.936,142.96C128.652,142.783 128.581,142.606 128.758,142.606L128.779,142.606ZM117.955,142.96C118.663,143.421 119.478,143.421 119.194,142.96C119.088,142.747 118.628,142.606 118.203,142.606C117.565,142.606 117.53,142.677 117.955,142.96ZM126.513,141.653C126.569,141.66 126.779,141.756 127.164,141.933C128.228,142.413 128.428,142.594 128.053,142.605L128.015,142.606C127.802,142.606 127.342,142.358 126.952,142.039C126.613,141.776 126.454,141.652 126.507,141.653L126.513,141.653ZM120.682,129.287C121.036,129.039 121.249,128.791 121.143,128.685C120.756,128.334 119.047,130.419 118.362,132.043L118.344,132.085C117.494,134.069 117.423,135.557 118.025,137.824C118.316,138.924 118.704,139.574 118.933,139.582L118.942,139.582C119.097,139.575 119.174,139.258 119.088,138.568L118.982,137.47L119.726,138.355L120.505,139.241L119.867,138.072C119.514,137.494 119.103,137.091 118.844,137.073L118.831,137.072C118.809,137.072 118.789,137.074 118.769,137.08C118.729,137.097 118.692,137.105 118.657,137.106L118.646,137.106C117.804,137.088 118.499,132.523 119.584,131.235C119.867,130.952 120.08,130.491 120.08,130.208C120.08,129.99 120.298,129.637 120.567,129.386L120.722,129.26L120.682,129.287ZM134.426,137.717C134.639,137.859 134.497,138.001 134.178,138.001C133.824,138.001 133.541,137.753 133.541,137.399C133.541,137.08 133.647,136.974 133.824,137.151C133.966,137.328 134.249,137.576 134.426,137.717ZM141.756,135.958C141.756,136.419 142.004,136.631 142.571,136.631C144.059,136.631 144.342,136.065 142.996,135.675C141.862,135.321 141.756,135.356 141.756,135.958ZM140.304,135.604C141.225,136.348 141.615,136.277 141.296,135.392C141.154,135.108 140.694,134.86 140.268,134.86L139.454,134.896L140.304,135.604ZM151.852,129.582C150.116,130.362 148.593,131.176 148.451,131.389C148.309,131.601 147.743,131.743 147.211,131.743C146.645,131.743 145.83,132.062 145.405,132.451C144.98,132.841 144.484,133.054 144.271,132.912C143.775,132.629 143.775,133.195 144.271,133.691C144.555,133.975 144.448,134.223 143.846,134.541C143.031,134.966 143.031,134.966 143.704,135.214C144.696,135.569 145.192,135.285 146.255,133.833C146.892,132.912 147.105,132.77 146.963,133.337C146.822,134.045 146.857,134.081 147.566,133.691C147.955,133.443 148.628,133.018 149.018,132.664C149.407,132.345 151.072,131.212 152.737,130.114C154.402,129.015 155.606,128.13 155.394,128.13C155.217,128.13 153.623,128.803 151.852,129.582ZM142.288,134.152C142.394,134.329 142.677,134.506 142.854,134.506C143.067,134.506 143.102,134.329 142.996,134.152C142.89,133.939 142.606,133.798 142.429,133.798C142.217,133.798 142.181,133.939 142.288,134.152ZM140.835,133.975C140.198,134.471 140.198,134.471 140.977,134.258C141.402,134.152 141.756,133.939 141.756,133.762C141.756,133.337 141.65,133.372 140.835,133.975ZM121.287,130.979C121.209,130.982 121.15,131.179 121.178,131.483C121.178,131.721 121.218,131.853 121.272,131.856L121.277,131.856C121.311,131.853 121.351,131.802 121.391,131.696C121.497,131.448 121.461,131.129 121.355,131.023C121.334,130.994 121.312,130.98 121.292,130.979L121.287,130.979ZM140.552,129.759C140.375,130.255 140.41,130.291 140.871,129.901C141.473,129.405 141.544,129.193 141.083,129.193C140.906,129.193 140.658,129.441 140.552,129.759ZM143.636,128.472C143.494,128.685 143.459,128.897 143.565,129.004C143.636,129.11 143.813,128.933 143.919,128.614C144.167,128.012 143.955,127.905 143.636,128.472ZM152.627,127.592C150.998,128.761 150.75,129.115 152.131,128.3C152.804,127.946 153.477,127.415 153.69,127.167C154.221,126.565 153.973,126.671 152.627,127.592ZM125.393,128.118C125.145,128.508 124.897,128.756 124.791,128.649C124.685,128.543 124.791,128.224 125.039,127.905C125.677,127.162 125.854,127.232 125.393,128.118ZM161.483,123.412C161.058,123.695 159.251,124.723 157.445,125.644C155.638,126.565 154.115,127.521 154.044,127.769C153.867,128.3 154.965,128.052 156.453,127.238C156.949,126.99 157.834,126.529 158.401,126.246C159.003,125.962 160.172,125.077 161.058,124.298C162.687,122.81 162.9,122.42 161.483,123.412ZM144.238,126.666C144.026,127.055 143.813,127.445 143.813,127.516C143.813,127.835 145.23,127.976 145.443,127.693C145.549,127.516 145.443,127.374 145.195,127.374C144.982,127.374 144.876,127.091 144.982,126.666C145.23,125.745 144.805,125.745 144.238,126.666ZM141.156,125.957C141.015,126.382 140.838,126.63 140.731,126.559C140.625,126.453 140.66,126.028 140.802,125.603C140.944,125.178 141.121,124.93 141.227,125.001C141.333,125.107 141.298,125.532 141.156,125.957ZM155.042,122.096C154.652,122.309 153.909,122.415 153.342,122.344C152.562,122.238 152.279,122.344 152.102,122.84C151.996,123.23 152.067,123.726 152.279,123.974C152.492,124.221 152.562,124.54 152.421,124.682C152.279,124.824 152.633,124.859 153.2,124.753C153.802,124.682 154.369,124.576 154.511,124.576C154.723,124.54 156.211,122.202 156.211,121.848C156.211,121.6 155.715,121.706 155.042,122.096ZM134.753,122.353C133.821,122.374 132.761,124.54 133.186,124.54C133.399,124.54 133.718,124.151 133.895,123.655C134.072,123.159 134.391,122.769 134.603,122.769C134.816,122.769 134.887,122.592 134.78,122.415C134.77,122.394 134.76,122.373 134.753,122.353ZM188.015,123.65C187.995,123.753 187.824,123.896 187.598,123.957C187.406,124.025 187.249,123.923 187.284,123.752C187.325,123.547 187.53,123.41 187.701,123.445C187.906,123.486 188.029,123.582 188.015,123.65ZM109.054,118.879C109.134,119.428 109.09,119.597 108.817,119.447C108.523,119.318 108.437,119.487 108.369,120.14C108.365,120.605 108.257,120.921 108.173,120.836C108.11,120.772 107.896,121.15 107.724,121.656C107.421,122.624 107.776,123.07 108.372,122.484C108.542,122.316 108.774,122.297 108.9,122.424C109.235,122.765 110.685,120.834 111.139,119.549C111.442,118.538 111.024,117.944 110.428,118.615C110.087,119.035 109.709,118.821 109.944,118.337C110.051,118.148 109.904,118.041 109.524,118.08C109.017,118.119 108.953,118.266 109.054,118.879ZM107.837,117.814C107.962,118.111 107.919,118.237 107.666,118.193C107.413,118.107 107.134,118.674 106.766,119.833C106.182,121.792 106.792,122.028 107.587,120.156C107.889,119.398 108.144,119.104 108.482,119.107C108.777,119.109 108.863,118.899 108.762,118.37C108.68,117.989 108.705,117.546 108.854,117.4C109.003,117.253 108.984,116.978 108.816,116.808C108.397,116.383 107.588,117.221 107.837,117.814ZM170.558,119.15C170.87,119.83 170.627,119.986 169.385,119.954C167.832,119.923 167.417,119.552 168.383,119.088C169.523,118.53 170.317,118.561 170.558,119.15ZM189.392,114.331C188.749,115.055 188.126,115.676 188.003,115.758C187.655,115.901 185.349,118.352 185.301,118.591C185.28,118.693 185.574,118.824 185.916,118.892C186.701,119.05 187.905,118.013 188.098,117.056C188.173,116.681 188.776,115.807 189.419,115.083C190.062,114.359 190.575,113.574 190.541,113.389C190.514,113.171 190.001,113.601 189.392,114.331ZM105.437,116.951C105.16,117.35 105.029,117.856 105.133,118.089C105.278,118.407 105.469,118.303 105.896,117.673C106.195,117.211 106.77,116.518 107.153,116.141C107.664,115.638 107.772,115.323 107.562,115.11C107.227,114.77 106.377,115.523 105.437,116.951ZM175.668,115.31C175.772,115.527 176.117,115.775 176.497,115.837C177.05,115.93 177.084,115.868 176.67,115.435C176.117,114.847 175.495,114.785 175.668,115.31ZM174.218,114.135C174.218,114.227 174.357,114.382 174.563,114.474C174.736,114.568 174.909,114.506 174.909,114.352C174.909,114.165 174.736,114.011 174.563,114.011C174.357,114.011 174.218,114.073 174.218,114.135ZM145.562,99.308C145.562,99.555 146.011,100.05 146.564,100.422C147.841,101.257 148.117,102.496 147.393,104.012C147.047,104.786 146.84,106.149 146.84,107.975C146.84,110.885 147.288,112.463 148.082,112.463C148.462,112.463 148.566,111.844 148.566,109.584C148.566,108.036 148.635,105.436 148.739,103.888C148.911,101.257 148.878,100.948 148.186,100.298C146.943,99.029 145.562,98.502 145.562,99.308ZM137.518,110.203C137.311,111.163 137.346,111.194 137.967,110.853C138.45,110.574 138.658,110.111 138.658,109.367C138.658,108.469 138.588,108.377 138.174,108.748C137.932,108.996 137.621,109.676 137.518,110.203ZM139.348,109.955C139.348,110.574 139.797,111.039 140.142,110.73C140.384,110.482 140.004,109.367 139.658,109.367C139.486,109.367 139.348,109.646 139.348,109.955ZM165.242,105.776C164.931,106.149 164.965,106.241 165.553,106.179C165.967,106.149 166.277,105.963 166.277,105.746C166.277,105.219 165.759,105.251 165.242,105.776ZM177.429,105.096C177.533,105.343 177.637,105.251 177.637,104.91C177.67,104.569 177.568,104.384 177.464,104.507C177.36,104.601 177.325,104.88 177.429,105.096ZM193.09,94.885C193.036,95.159 193.232,96.655 193.531,98.173C193.83,99.69 193.993,101.003 193.869,101.084C193.746,101.166 193.467,100.435 193.243,99.43C192.638,96.607 192.399,95.848 192.01,95.841C191.477,95.84 191.482,96.872 192.02,99.148C192.264,100.228 192.482,101.445 192.475,101.835C192.433,102.395 192.774,102.641 194.011,103.032C194.878,103.313 195.869,103.513 196.238,103.445C196.607,103.377 196.703,103.254 196.498,103.213C195.59,102.959 196.26,102.454 197.435,102.441C198.529,102.484 199.308,101.965 198.454,101.793C198.283,101.759 198.256,101.54 198.414,101.288C198.564,101.069 198.517,100.598 198.292,100.303C198.108,99.982 198.012,99.572 198.122,99.381C198.238,99.155 198.055,98.479 197.68,97.87L197.025,96.707L196.819,97.555C196.668,98.306 196.552,98.176 196.068,96.693C195.38,94.635 195.407,94.676 194.949,94.833C194.724,94.894 194.757,95.611 194.975,96.473C195.193,97.334 195.294,98.065 195.171,98.147C195.048,98.229 194.707,97.45 194.421,96.397C193.877,94.51 193.304,93.826 193.09,94.885ZM197.328,100.678C197.498,101.423 197.498,101.423 197.116,100.671C196.884,100.234 196.755,99.639 196.844,99.372C196.94,98.894 196.974,98.901 197.056,99.379C197.103,99.673 197.233,100.268 197.328,100.678ZM123.105,97.748C123.912,97.121 124.357,96.934 124.355,97.23C124.353,97.441 123.885,97.944 123.29,98.404C122.717,98.801 121.635,99.616 120.934,100.18C119.744,101.1 119.681,101.121 120.108,100.406C120.386,99.965 120.876,99.399 121.216,99.148C121.556,98.897 122.426,98.25 123.105,97.748ZM141.569,98.593C141.559,98.593 141.55,98.605 141.541,98.63C141.532,98.655 141.524,98.693 141.516,98.744L141.569,98.593ZM167.486,86.505L167.596,86.691L168.428,88.032L167.05,87.429C167.003,87.406 166.957,87.385 166.912,87.365C167.088,87.029 167.282,86.737 167.486,86.505Z" style="fill-rule:nonzero;"/>
        </g>
        <g transform="matrix(2.40133,0,0,2.40133,-17.984,-348.993)">
            <g transform="matrix(1,0,0,1,-5.54175,0)">
                <g transform="matrix(12,0,0,12,15.1493,211.721)">
                    <path d="M0.681,-0.644L0.681,-0.497C0.681,-0.346 0.63,-0.222 0.527,-0.127C0.438,-0.044 0.336,-0.002 0.223,0C0.17,0.001 0.135,0.001 0.118,0C0.078,-0.003 0.039,-0.01 0,-0.023L0,-0.3C0.039,-0.291 0.096,-0.286 0.172,-0.286C0.227,-0.286 0.275,-0.304 0.314,-0.341C0.358,-0.382 0.38,-0.437 0.38,-0.505L0.38,-0.644L0.681,-0.644ZM0.38,-0.967L0.681,-0.967L0.681,-0.719L0.38,-0.719L0.38,-0.967Z" style="fill-rule:nonzero;"/>
                </g>
                <g transform="matrix(12,0,0,12,24.6773,211.721)">
                    <path d="M0.984,-0.967L0.682,-0.967L0.682,-0.718L0.984,-0.718L0.984,-0.967ZM0.302,-0.718L0,-0.718L0,-0.967L0.302,-0.967L0.302,-0.718ZM0.682,-0.643L0.682,-0.302C0.631,-0.291 0.578,-0.286 0.521,-0.286C0.464,-0.286 0.414,-0.303 0.373,-0.337C0.326,-0.376 0.302,-0.43 0.302,-0.497L0.302,-0.643L0,-0.643L0,-0.486C0,-0.338 0.052,-0.217 0.155,-0.124C0.245,-0.043 0.346,-0.002 0.459,0C0.55,0.001 0.625,-0.007 0.682,-0.024L0.682,-0.021L0.984,-0.021L0.984,-0.643L0.682,-0.643Z" style="fill-rule:nonzero;"/>
                </g>
                <g transform="matrix(12,0,0,12,37.8653,211.721)">
                    <path d="M0.329,-0.643C0.339,-0.638 0.393,-0.618 0.491,-0.584C0.577,-0.553 0.642,-0.522 0.685,-0.49C0.748,-0.443 0.779,-0.386 0.779,-0.321C0.779,-0.226 0.747,-0.152 0.683,-0.099C0.622,-0.047 0.538,-0.021 0.433,-0.021L0,-0.021L0,-0.298L0.405,-0.298C0.436,-0.298 0.452,-0.31 0.452,-0.333C0.452,-0.354 0.417,-0.374 0.347,-0.394C0.248,-0.422 0.18,-0.446 0.142,-0.467C0.064,-0.51 0.017,-0.568 0.001,-0.643L0.329,-0.643ZM0.002,-0.718C0.013,-0.798 0.049,-0.86 0.111,-0.903C0.171,-0.946 0.249,-0.967 0.344,-0.967L0.744,-0.967L0.744,-0.718L0.002,-0.718Z" style="fill-rule:nonzero;"/>
                </g>
                <g transform="matrix(12,0,0,12,48.3773,211.721)">
                    <path d="M0,-0.967L0,-0.718L0.779,-0.718L0.779,-0.967L0,-0.967ZM0.54,-0.021L0.239,-0.021L0.239,-0.643L0.54,-0.643L0.54,-0.021Z" style="fill-rule:nonzero;"/>
                </g>
            </g>
            <g transform="matrix(1,0,0,1,2.83889,0)">
                <g transform="matrix(12,0,0,12,68.0933,211.721)">
                    <path d="M0,-0.967L0,-0.718L0.779,-0.718L0.779,-0.967L0,-0.967ZM0.54,-0.021L0.239,-0.021L0.239,-0.643L0.54,-0.643L0.54,-0.021Z" style="fill-rule:nonzero;"/>
                </g>
                <g transform="matrix(12,0,0,12,78.4613,211.721)">
                    <path d="M0.302,-0.643L0,-0.643L0,-0.021L0.302,-0.021L0.302,-0.643ZM0.986,-0.718C0.975,-0.798 0.939,-0.86 0.877,-0.903C0.817,-0.946 0.739,-0.967 0.644,-0.967L0,-0.967L0,-0.718L0.986,-0.718ZM0.823,-0.47C0.918,-0.526 0.971,-0.584 0.982,-0.643L0.63,-0.643C0.606,-0.626 0.563,-0.607 0.502,-0.585C0.456,-0.57 0.41,-0.554 0.365,-0.539L0.363,-0.3C0.399,-0.303 0.436,-0.305 0.475,-0.305C0.53,-0.305 0.578,-0.286 0.617,-0.249C0.66,-0.208 0.682,-0.154 0.682,-0.085L0.682,-0.021L0.984,-0.021L0.984,-0.093C0.984,-0.248 0.93,-0.374 0.823,-0.47Z" style="fill-rule:nonzero;"/>
                </g>
                <g transform="matrix(12,0,0,12,91.4813,211.721)">
                    <path d="M0.049,-0.719C0.09,-0.805 0.152,-0.873 0.235,-0.924C0.319,-0.975 0.415,-1 0.523,-1C0.64,-1 0.743,-0.976 0.832,-0.929C0.925,-0.879 0.99,-0.809 1.028,-0.719L0.049,-0.719ZM0.355,-0.644C0.319,-0.605 0.301,-0.558 0.301,-0.505C0.301,-0.436 0.323,-0.382 0.367,-0.341C0.406,-0.304 0.454,-0.286 0.509,-0.286C0.585,-0.286 0.642,-0.291 0.681,-0.3L0.681,-0.023C0.642,-0.01 0.603,-0.003 0.563,0C0.546,0.001 0.511,0.001 0.458,0C0.345,-0.002 0.243,-0.044 0.154,-0.127C0.051,-0.222 0,-0.346 0,-0.497C0,-0.548 0.007,-0.597 0.02,-0.644L0.355,-0.644ZM1.056,-0.023L0.742,-0.023L0.742,-0.462C0.742,-0.532 0.722,-0.593 0.681,-0.644L1.045,-0.644C1.052,-0.61 1.056,-0.574 1.056,-0.536L1.056,-0.023Z" style="fill-rule:nonzero;"/>
                </g>
                <g transform="matrix(12,0,0,12,105.461,211.721)">
                    <path d="M0.302,-0.643L0.302,-0.021L0,-0.021L0,-0.643L0.302,-0.643ZM0,-0.967L0.302,-0.967L0.302,-0.718L0,-0.718L0,-0.967Z" style="fill-rule:nonzero;"/>
                </g>
                <g transform="matrix(12,0,0,12,110.657,211.721)">
                    <path d="M0,-0.021L0.302,-0.021L0.302,-0.643L0,-0.643L0,-0.021ZM0.461,-1L0,-1L0,-0.718L0.936,-0.719C0.895,-0.805 0.833,-0.873 0.75,-0.923C0.665,-0.974 0.568,-1 0.461,-1ZM0.984,-0.5C0.984,-0.549 0.977,-0.597 0.964,-0.643L0.628,-0.643C0.664,-0.604 0.682,-0.558 0.682,-0.504L0.682,-0.021L0.984,-0.021L0.984,-0.5Z" style="fill-rule:nonzero;"/>
                </g>
            </g>
        </g>
    </g>
</svg>
