<?xml version="1.0" standalone="no"?>
<!DOCTYPE svg PUBLIC "-//W3C//DTD SVG 20010904//EN"
 "http://www.w3.org/TR/2001/REC-SVG-20010904/DTD/svg10.dtd">
<svg version="1.0" xmlns="http://www.w3.org/2000/svg"
 width="668.000000pt" height="152.000000pt" viewBox="0 0 668.000000 152.000000"
 preserveAspectRatio="xMidYMid meet">
<metadata>
Created by potrace 1.16, written by Peter Selinger 2001-2019
</metadata>
<g transform="translate(0.000000,152.000000) scale(0.100000,-0.100000)"
fill="#000000" stroke="none">
<path d="M457 864 c171 -175 348 -355 392 -399 l81 -80 398 399 c218 219 386
392 372 386 -14 -7 -122 -64 -240 -127 -211 -113 -217 -117 -325 -222 -60 -58
-131 -126 -158 -151 l-47 -44 -153 150 -152 151 -195 103 c-107 56 -215 114
-240 128 -34 19 32 -53 267 -294z"/>
<path d="M700 894 c124 -126 227 -230 230 -232 3 -1 109 102 235 229 127 128
223 228 215 224 -15 -8 -124 -82 -339 -230 l-108 -74 -74 51 c-41 28 -144 98
-229 156 l-155 106 225 -230z"/>
<path d="M2411 1093 c13 -16 81 -87 152 -160 l127 -132 0 -166 0 -165 55 0 55
0 0 161 0 161 155 161 155 162 -72 3 -72 3 -110 -116 -111 -116 -105 115 -105
116 -74 0 -74 0 24 -27z"/>
<path d="M1760 827 l0 -255 53 -47 52 -48 3 122 3 121 254 0 255 0 0 -73 0
-73 55 -54 55 -54 0 251 0 252 -55 58 -54 58 -1 -127 0 -128 -255 0 -255 0 0
78 c0 77 0 78 -37 113 -80 74 -73 93 -73 -194z"/>
<path d="M3060 1025 l-54 -55 299 -2 300 -3 0 -65 0 -65 -301 -3 -302 -2 -4
-178 c-2 -97 -3 -179 -1 -181 2 -3 26 17 53 44 l50 49 0 78 0 78 263 0 c282 0
293 2 331 53 30 40 35 186 9 237 -34 65 -56 70 -338 70 l-251 0 -54 -55z"/>
<path d="M3802 1060 c-55 -34 -62 -65 -62 -285 0 -220 7 -251 62 -285 31 -19
50 -20 378 -20 l344 0 -54 55 -54 55 -281 2 -280 3 -3 68 -3 67 216 0 217 0
-47 55 -47 55 -170 0 -169 0 3 68 3 67 370 0 370 0 0 -65 0 -65 -184 -5 -183
-5 368 -319 c203 -176 362 -311 354 -301 -8 11 -118 130 -244 265 l-228 245
73 5 c124 10 154 46 154 185 0 58 -6 89 -18 113 -33 60 -45 62 -469 62 -367 0
-384 -1 -416 -20z"/>
<path d="M4750 775 l0 -306 73 3 72 3 0 300 0 300 -72 3 -73 3 0 -306z m120 0
l0 -275 -45 0 -45 0 0 275 0 275 45 0 45 0 0 -275z"/>
<path d="M5020 1062 c-19 -9 -45 -33 -58 -52 -23 -34 -23 -39 -20 -247 l3
-213 38 -37 37 -38 333 -3 332 -3 -70 71 -69 70 -233 0 -233 0 0 160 0 160
295 0 c162 0 295 3 295 6 0 4 -27 37 -61 75 l-61 69 -247 0 c-214 0 -250 -2
-281 -18z m560 -57 l44 -45 -280 -2 -279 -3 0 -180 0 -180 234 -3 c256 -3 247
-1 293 -64 l19 -28 -291 0 -292 0 -29 29 -29 29 0 214 c0 187 3 216 18 234 33
41 49 43 302 44 l246 0 44 -45z"/>
<path d="M5796 1070 c-15 -5 -37 -17 -48 -27 -44 -40 -48 -62 -48 -275 0 -184
2 -206 20 -235 38 -62 45 -64 396 -61 l316 3 -62 68 -62 67 -234 0 -234 0 0
45 0 45 298 2 297 3 -64 68 -64 67 -234 0 -233 0 0 45 0 45 295 0 c162 0 295
3 295 8 0 4 -30 38 -68 75 l-68 67 -234 -1 c-129 0 -248 -5 -264 -9z m540 -62
l38 -43 -274 -5 -275 -5 -3 -67 -3 -68 238 0 239 0 37 -45 38 -45 -276 0 -275
0 0 -70 0 -70 238 -1 237 -1 44 -49 44 -49 -279 0 c-397 0 -387 -8 -382 295 3
161 6 194 20 215 34 47 48 49 309 50 l247 0 38 -42z"/>
<path d="M6456 1064 c-24 -24 -20 -61 9 -80 23 -15 27 -15 50 0 46 30 26 96
-29 96 -8 0 -22 -7 -30 -16z m64 -8 c6 -8 10 -25 8 -38 -2 -18 -10 -24 -35
-26 -28 -3 -33 1 -39 23 -11 45 37 75 66 41z"/>
<path d="M6477 1054 c-4 -4 -7 -19 -7 -33 0 -21 2 -23 10 -11 9 13 11 13 20 0
8 -12 10 -8 8 14 -3 29 -18 43 -31 30z"/>
</g>
</svg>
