<svg xmlns="http://www.w3.org/2000/svg" viewBox="0 0 135 16" width="540" height="64">
    <g fill="none" fill-rule="evenodd">
        <path fill="#000" d="M0 15.692h4.269v-4.395H6.38c3.829 0 6.623-1.912 6.623-5.539v-.044c0-3.406-2.508-5.406-6.403-5.406H0v15.384zm4.269-7.736V3.89H6.27c1.54 0 2.465.703 2.465 2.022v.044c0 1.209-.925 2-2.443 2H4.27zM22.554 16c4.753 0 8.318-3.582 8.318-8v-.044C30.872 3.538 27.35 0 22.598 0c-4.753 0-8.317 3.582-8.317 8v.044c0 4.418 3.52 7.956 8.273 7.956zm.044-3.846c-2.332 0-3.939-1.934-3.939-4.154v-.044c0-2.22 1.563-4.11 3.895-4.11 2.354 0 3.96 1.934 3.96 4.154v.044c0 2.22-1.562 4.11-3.916 4.11zm13.73 3.648h3.72l3.08-8.857 3.102 8.857h3.719L55.098.308h-4.423l-2.684 8.9L45.02.265h-3.675l-2.97 8.945L35.69.308h-4.51l5.148 15.494zm20.464-.11H69.29v-3.626h-8.273v-2.44h7.393V6.264h-7.393v-2.33h8.163V.308H56.792v15.384zm14.677 0h4.269v-4.659h1.87l3.102 4.66h4.93l-3.675-5.363c1.914-.814 3.168-2.374 3.168-4.726V5.56c0-1.516-.462-2.703-1.364-3.582C82.735.923 81.106.308 78.752.308H71.47v15.384zm4.269-8V4h2.794c1.43 0 2.31.615 2.31 1.824v.044c0 1.121-.836 1.824-2.288 1.824h-2.816zm11.552 8h5.853c5.545 0 8.78-3.296 8.78-7.736v-.044c0-4.44-3.191-7.604-8.692-7.604H87.29v15.384zm4.268-3.78V4.088h1.739c2.552 0 4.246 1.428 4.246 3.89v.044c0 2.483-1.694 3.89-4.246 3.89h-1.739zm33.952 3.78h4.27V4.044h4.62V.308h-13.51v3.736h4.62v11.648z"/>
        <path fill="#C91619" d="M115.203.736l-5.847 5.84h2.64l-4.171 4.924 9.969-5.801h-3.397l3.55-2.886A7.954 7.954 0 0 1 119.86 8c0 4.418-3.593 8-8.024 8-4.432 0-8.025-3.582-8.025-8s3.593-8 8.025-8c1.202 0 2.342.264 3.366.736z"/>
    </g>
</svg>